{
  "title": "Geordie Shore S10E03 1080P WEB-DL",
  "uid": 11835026,
  "size": 1607637702,
  "categoryP": "video",
  "categoryS": "hd___tv_shows",
  "magnet": "?xt=urn:btih:afe37f40509dc7c8980bb6570fdaad9f171d2e81&amp;dn=Geordie+Shore+S10E03+1080P+WEB-DL&amp;tr=udp%3A%2F%2Ftracker.openbittorrent.com%3A80&amp;tr=udp%3A%2F%2Fopen.demonii.com%3A1337&amp;tr=udp%3A%2F%2Ftracker.coppersurfer.tk%3A6969&amp;tr=udp%3A%2F%2Fexodus.desync.com%3A6969",
  "seeders": 62,
  "leechers": 1,
  "uploader": "jmanwf",
  "files": 2,
  "time": 1429662142,
  "description": "It's the Newbies first morning in the house but with Holly, Kyle and Charlotte gone how will the family get back together? Holly opens her heart to Kyle but does he feel the same? And a shock revelation from Gary leaves Charlotte heartbroken.\n\n\n\nVideo\nID : 2\nFormat : AVC\nFormat/Info : Advanced Video Codec\nFormat profile : &lt;a class=&quot;__cf_email__&quot; href=&quot;/cdn-cgi/l/email-protection&quot; data-cfemail=&quot;cd85a4aaa58d81f9e3fd&quot;&gt;[email&amp;#160;protected]&lt;/a&gt;&lt;script cf-hash='f9e31' type=&quot;text/javascript&quot;&gt;\n/* &lt;![CDATA[ */!function(){try{var t=&quot;currentScript&quot;in document?document.currentScript:function(){for(var t=document.getElementsByTagName(&quot;script&quot;),e=t.length;e--;)if(t[e].getAttribute(&quot;cf-hash&quot;))return t[e]}();if(t&amp;&amp;t.previousSibling){var e,r,n,i,c=t.previousSibling,a=c.getAttribute(&quot;data-cfemail&quot;);if(a){for(e=&quot;&quot;,r=parseInt(a.substr(0,2),16),n=2;a.length-n;n+=2)i=parseInt(a.substr(n,2),16)^r,e+=String.fromCharCode(i);e=document.createTextNode(e),c.parentNode.replaceChild(e,c)}}}catch(u){}}();/* ]]&gt; */&lt;/script&gt;\nFormat settings, CABAC : Yes\nFormat settings, ReFrames : 4 frames\nCodec ID : avc1\nCodec ID/Info : Advanced Video Coding\nDuration : 42mn 8s\nBit rate : 4 957 Kbps\nWidth : 1 920 pixels\nHeight : 1 080 pixels\nDisplay aspect ratio : 16:9\nFrame rate mode : Constant\nFrame rate : 25.000 fps\nColor space : YUV\nChroma subsampling : 4:2:0\nBit depth : 8 bits\nScan type : Progressive\nBits/(Pixel*Frame) : 0.096\nStream size : 1.46 GiB (97%)\nLanguage : English\nEncoded date : UTC 2015-04-22 05:11:28\nTagged date : UTC 2015-04-22 05:13:59\nColor primaries : BT.709\nTransfer characteristics : BT.709\nMatrix coefficients : BT.709\nColor range : Limited\n\nAudio\nID : 1\nFormat : AAC\nFormat/Info : Advanced Audio Codec\nFormat profile : LC\nCodec ID : 40\nDuration : 42mn 8s\nDuration_LastFrame : -6ms\nBit rate mode : Variable\nBit rate : 126 Kbps\nMaximum bit rate : 190 Kbps\nChannel(s) : 2 channels\nChannel positions : Front: L R\nSampling rate : 48.0 KHz\nCompression mode : Lossy\nStream size : 37.9 MiB (2%)\nLanguage : English\nEncoded date : UTC 2015-04-22 05:11:28\nTagged date : UTC 2015-04-22 05:13:59\n\nText\nID : 3-CC1\nFormat : EIA-608\nMuxing mode : Final Cut\nCodec ID : c608\nDuration : 42mn 6s\nBit rate mode : Constant\nStream size : 0.00 Byte (0%)\nLanguage : English\nEncoded date : UTC 2015-04-22 05:11:29\nTagged date : UTC 2015-04-22 05:13:00\n\n\n\n\n &lt;a href=&quot;\nhttps://itunes.apple.com/gb/tv-season/geordie-shore-season-10/id979550691&quot; rel=&quot;nofollow&quot; target=&quot;_NEW&quot;&gt;\nhttps://itunes.apple.com/gb/tv-season/geordie-shore-season-10/id979550691&lt;/a&gt;",
  "parsed": {
    "xt": "urn:btih:afe37f40509dc7c8980bb6570fdaad9f171d2e81",
    "dn": "Geordie Shore S10E03 1080P WEB-DL",
    "tr": [
      "udp://exodus.desync.com:6969",
      "udp://open.demonii.com:1337",
      "udp://tracker.coppersurfer.tk:6969",
      "udp://tracker.openbittorrent.com:80"
    ],
    "infoHash": "afe37f40509dc7c8980bb6570fdaad9f171d2e81",
    "infoHashBuffer": {
      "type": "Buffer",
      "data": [
        175,
        227,
        127,
        64,
        80,
        157,
        199,
        200,
        152,
        11,
        182,
        87,
        15,
        218,
        173,
        159,
        23,
        29,
        46,
        129
      ]
    },
    "name": "Geordie Shore S10E03 1080P WEB-DL",
    "announce": [
      "udp://exodus.desync.com:6969",
      "udp://open.demonii.com:1337",
      "udp://tracker.coppersurfer.tk:6969",
      "udp://tracker.openbittorrent.com:80"
    ],
    "urlList": []
  },
  "previous": 63,
  "peers": 2,
  "last_updated": "2016-12-25T11:09:54.208Z"
}